<svg width="140" height="35" xmlns="http://www.w3.org/2000/svg" xmlns:xlink="http://www.w3.org/1999/xlink">
    <defs>
        <linearGradient x1="433.333%" y1="18.75%" x2="0%" y2="18.75%" id="a">
            <stop stop-color="#23EAC0" offset="0%"/>
            <stop stop-color="#57E4CA" offset="24%"/>
            <stop stop-color="#49E6F4" offset="49%"/>
            <stop stop-color="#30A6FD" offset="75%"/>
            <stop stop-color="#8089FF" offset="100%"/>
        </linearGradient>
        <linearGradient x1="100%" y1="-116.667%" x2="-62.5%" y2="-116.667%" id="b">
            <stop stop-color="#23EAC0" offset="0%"/>
            <stop stop-color="#57E4CA" offset="24%"/>
            <stop stop-color="#49E6F4" offset="49%"/>
            <stop stop-color="#30A6FD" offset="75%"/>
            <stop stop-color="#8089FF" offset="100%"/>
        </linearGradient>
        <linearGradient x1="162.5%" y1="216.667%" x2="0%" y2="216.667%" id="c">
            <stop stop-color="#23EAC0" offset="0%"/>
            <stop stop-color="#57E4CA" offset="24%"/>
            <stop stop-color="#49E6F4" offset="49%"/>
            <stop stop-color="#30A6FD" offset="75%"/>
            <stop stop-color="#8089FF" offset="100%"/>
        </linearGradient>
        <linearGradient x1="266.667%" y1="50%" x2="-166.667%" y2="50%" id="d">
            <stop stop-color="#23EAC0" offset="0%"/>
            <stop stop-color="#57E4CA" offset="24%"/>
            <stop stop-color="#49E6F4" offset="49%"/>
            <stop stop-color="#30A6FD" offset="75%"/>
            <stop stop-color="#8089FF" offset="100%"/>
        </linearGradient>
        <linearGradient x1="100%" y1="50%" x2="-333.333%" y2="50%" id="e">
            <stop stop-color="#23EAC0" offset="0%"/>
            <stop stop-color="#57E4CA" offset="24%"/>
            <stop stop-color="#49E6F4" offset="49%"/>
            <stop stop-color="#30A6FD" offset="75%"/>
            <stop stop-color="#8089FF" offset="100%"/>
        </linearGradient>
        <linearGradient x1="100%" y1="216.667%" x2="-333.333%" y2="216.667%" id="f">
            <stop stop-color="#23EAC0" offset="0%"/>
            <stop stop-color="#57E4CA" offset="24%"/>
            <stop stop-color="#49E6F4" offset="49%"/>
            <stop stop-color="#30A6FD" offset="75%"/>
            <stop stop-color="#8089FF" offset="100%"/>
        </linearGradient>
        <linearGradient x1="877.204%" y1="0%" x2="0%" y2="50.673%" id="m">
            <stop stop-color="#00EDB9" offset="0%"/>
            <stop stop-color="#7FE0D2" offset="30.424%"/>
            <stop stop-color="#45E6F7" offset="50.673%"/>
            <stop stop-color="#1AAEFC" offset="71.511%"/>
            <stop stop-color="#8C85FF" offset="100%"/>
        </linearGradient>
        <path id="g" d="M.246.242h20.058v24.291H.246z"/>
        <path id="i" d="M.255.241h20.787v24.292H.255z"/>
        <path id="k" d="M0 .277h20.25v7.399H0z"/>
        <path id="l" d="M0 .277h7.399v20.64H0z"/>
    </defs>
    <g fill="none" fill-rule="evenodd">
        <g transform="translate(0 .843)" fill-rule="nonzero">
            <rect fill="#FFF" y="12.651" width="7.59" height="20.241" rx="1.5"/>
            <rect fill="#FFF" x="12.651" y="25.301" width="20.241" height="7.59" rx="1.5"/>
            <circle fill="#FFF" cx="16.446" cy="16.446" r="3.795"/>
            <circle fill="#FFF" cx="29.096" cy="16.446" r="3.795"/>
            <circle fill="#FFF" cx="29.096" cy="3.795" r="3.795"/>
            <rect fill="url(#a)" y="12.651" width="7.59" height="20.241" rx="1.5"/>
            <rect fill="url(#b)" x="12.651" y="25.301" width="20.241" height="7.59" rx="1.5"/>
            <rect fill="url(#c)" width="20.241" height="7.59" rx="1.5"/>
            <circle fill="url(#d)" cx="16.446" cy="16.446" r="3.795"/>
            <circle fill="url(#e)" cx="29.096" cy="16.446" r="3.795"/>
            <circle fill="url(#f)" cx="29.096" cy="3.795" r="3.795"/>
        </g>
        <g transform="translate(41.668 9.886)">
            <mask id="h" fill="#fff">
                <use xlink:href="#g"/>
            </mask>
            <path d="M4.585 11.53h11.432c.352 0 .529-.158.529-.477V7.386c0-2.73-1.482-4.096-4.446-4.096H8.502c-2.964 0-4.446 1.366-4.446 4.096v3.667c0 .319.177.477.53.477m14.712 13.004H8.078c-2.434 0-4.349-.62-5.742-1.858-1.394-1.239-2.09-2.969-2.09-5.192V7.29c0-2.223.696-3.954 2.09-5.192C3.73.86 5.644.242 8.078.242h4.446c2.434 0 4.34.619 5.716 1.857 1.376 1.238 2.064 2.97 2.064 5.192v6.049c0 .476-.247.714-.741.714H4.585c-.352 0-.529.144-.529.43v2.905c0 2.762 1.482 4.144 4.446 4.144h10.796c.494 0 .741.222.741.666v1.715c0 .413-.247.62-.74.62"
                  fill="#3636D8" mask="url(#h)"/>
        </g>
        <path d="M71.603 34.42h-2.382c-.494 0-.74-.222-.74-.667V10.794c0-.444.246-.666.74-.666h2.382c.494 0 .741.222.741.666v1.858h.212c.881-1.683 2.68-2.524 5.398-2.524h2.964c2.398 0 4.268.619 5.61 1.857 1.34 1.238 2.01 2.97 2.01 5.192v16.576c0 .445-.247.667-.74.667h-2.382c-.494 0-.74-.222-.74-.667V17.32c0-2.763-1.483-4.144-4.447-4.144h-2.963c-1.588 0-2.805.381-3.652 1.143s-1.27 1.842-1.27 3.239v16.195c0 .445-.247.667-.74.667"
              fill="#3636D8"/>
        <g transform="translate(92.682 9.886)">
            <mask id="j" fill="#fff">
                <use xlink:href="#i"/>
            </mask>
            <path d="M.831.241h2.487c.459 0 .741.223.847.667l6.351 20.148h.265L17.079.908c.14-.444.44-.667.9-.667h2.487c.493 0 .67.223.529.667l-7.621 22.91c-.106.478-.423.715-.953.715H8.822c-.494 0-.812-.237-.952-.714L.302.909C.16.463.337.24.832.24"
                  fill="#3636D8" mask="url(#j)"/>
        </g>
        <path d="M127.384 31.032h4.34c2.964 0 4.445-1.534 4.445-4.604V8.381c0-3.07-1.481-4.604-4.445-4.604h-4.34c-2.929 0-4.393 1.534-4.393 4.604v18.047c0 3.07 1.464 4.604 4.393 4.604m4.816 3.387h-5.292c-2.4 0-4.296-.687-5.69-2.063-1.394-1.377-2.09-3.299-2.09-5.77V8.223c0-2.434.696-4.348 2.09-5.742 1.394-1.393 3.29-2.09 5.69-2.09h5.292c2.399 0 4.295.697 5.69 2.09 1.393 1.394 2.09 3.308 2.09 5.742v18.365c0 2.47-.697 4.392-2.09 5.769-1.395 1.376-3.291 2.063-5.69 2.063"
              fill="#3636D8"/>
        <rect fill="url(#m)" x="126.506" y="14.337" width="5.904" height="5.904" rx="1"/>
    </g>
</svg>
